<?xml version="1.0" encoding="UTF-8"?>
<svg version="1.1" xmlns="http://www.w3.org/2000/svg" width="100" height="100">
<path d="M0 0 C3.53133062 2.00643785 4.76195341 3.28937382 6.05859375 7.16015625 C6.8487382 10.38302759 7.47167494 13.57217364 7.98803711 16.84838867 C9.14346785 24.06526643 10.70346573 29.94148007 15 36 C15.86625 37.299375 15.86625 37.299375 16.75 38.625 C23.25968038 45.49632929 28.52440791 48.41630456 37.83984375 50.203125 C44.04718088 51.76838677 48.36189975 55.16213142 52.5625 59.875 C54.37002568 63.80440365 54.93436826 66.75746305 54 71 C51.69074825 75.31060327 51.69074825 75.31060327 49 77 C42.72932927 78.73630126 36.64800653 76.38693136 30.6875 74.5 C18.62285136 70.7097259 6.70097355 70.41931723 -5 76 C-7.58062328 78.3615889 -9.67841869 80.8478908 -11.859375 83.578125 C-15.75661504 87.98741118 -20.53393124 90.64780269 -26.421875 91.24609375 C-32.06809301 90.95241463 -35.10465744 88.99272612 -39 85 C-40.42622826 82.14754348 -40.31059168 80.16415275 -40 77 C-38.3125 74.47265625 -38.3125 74.47265625 -36 72.0625 C-35.17757812 71.19625 -34.35515625 70.33 -33.5078125 69.4375 C-31.36561061 67.35535985 -29.18736607 65.44866527 -26.875 63.5625 C-18.82197734 56.71743074 -14.77679842 48.12761313 -13.7890625 37.79296875 C-13.59474897 33.52554465 -14.17595379 30.05999003 -15.5 26 C-17.57989294 19.57124 -18.15005842 14.01290563 -15.4375 7.6875 C-12.17764686 1.91652324 -6.7243336 -1.16944932 0 0 Z M-2 44 C-1.67 50.27 -1.34 56.54 -1 63 C0.134375 62.113125 1.26875 61.22625 2.4375 60.3125 C6.72992036 57.07974692 11.24545713 54.4873303 16 52 C16 51.67 16 51.34 16 51 C15.45472656 50.82984375 14.90945312 50.6596875 14.34765625 50.484375 C8.70574406 48.67124766 3.38312963 46.47794856 -2 44 Z " fill="#427B46" transform="translate(43,5)"/>
<path d="M0 0 C0.66 0.33 1.32 0.66 2 1 C1.27876953 1.78117188 1.27876953 1.78117188 0.54296875 2.578125 C-1.45173865 5.70905813 -1.50318411 8.06368221 -1.6875 11.75 C-1.75324219 12.92046875 -1.81898437 14.0909375 -1.88671875 15.296875 C-1.92410156 16.18890625 -1.96148438 17.0809375 -2 18 C-1.34 18 -0.68 18 0 18 C0.19916016 19.01320313 0.19916016 19.01320313 0.40234375 20.046875 C0.57894531 20.93890625 0.75554688 21.8309375 0.9375 22.75 C1.19853516 24.07257812 1.19853516 24.07257812 1.46484375 25.421875 C1.64144531 26.27265625 1.81804688 27.1234375 2 28 C2.11988281 28.69609375 2.23976563 29.3921875 2.36328125 30.109375 C3.18338893 32.54454138 4.40001578 33.73044988 6.25 35.5 C6.87519531 36.09941406 7.50039063 36.69882812 8.14453125 37.31640625 C10.35132537 39.31878154 12.62485362 41.20064668 15 43 C13.68 42.67 12.36 42.34 11 42 C11.06900513 42.93682617 11.06900513 42.93682617 11.1394043 43.89257812 C11.34029474 46.76077345 11.51405968 49.63001916 11.6875 52.5 C11.76033203 53.48226562 11.83316406 54.46453125 11.90820312 55.4765625 C12.32956003 62.91227261 11.86926323 68.73222799 6.75 74.5625 C5.8425 75.366875 4.935 76.17125 4 77 C3.484375 77.5671875 2.96875 78.134375 2.4375 78.71875 C-2.24441617 83.83417693 -7.25042445 87.61532363 -14.36328125 88.19140625 C-20.06700896 87.87506505 -23.05137389 86.04734177 -27 82 C-28.42622826 79.14754348 -28.31059168 77.16415275 -28 74 C-26.3125 71.47265625 -26.3125 71.47265625 -24 69.0625 C-23.17757813 68.19625 -22.35515625 67.33 -21.5078125 66.4375 C-19.36561061 64.35535985 -17.18736607 62.44866527 -14.875 60.5625 C-6.82197734 53.71743074 -2.77679842 45.12761313 -1.7890625 34.79296875 C-1.59474897 30.52554465 -2.17595379 27.05999003 -3.5 23 C-5.65250338 16.34680773 -6.18510257 10.90475417 -3.0625 4.5 C-1.28 1.28 -1.28 1.28 0 0 Z " fill="#2B85C5" transform="translate(31,8)"/>
<path d="M0 0 C3.53133062 2.00643785 4.76195341 3.28937382 6.05859375 7.16015625 C6.8487382 10.38302759 7.47167494 13.57217364 7.98803711 16.84838867 C9.14243273 24.05880105 10.69416983 29.95294071 15 36 C15.61875 36.886875 16.2375 37.77375 16.875 38.6875 C19.27562734 41.2999474 21.86222686 43.52635299 24.609375 45.765625 C25.06828125 46.17296875 25.5271875 46.5803125 26 47 C26 47.33 26 47.66 26 48 C17.61218479 49.66221948 10.88955199 50.94477599 3 47 C3 46.34 3 45.68 3 45 C1.90945312 44.62294922 1.90945312 44.62294922 0.796875 44.23828125 C-4.2606357 41.99913196 -7.90902969 38.56316442 -11 34 C-12.00642258 29.62083443 -12.17310015 25.47983186 -12 21 C-12.66 21 -13.32 21 -14 21 C-14.86063712 8.28169583 -14.86063712 8.28169583 -11.6875 3.75 C-7.98877753 -0.03473927 -5.16888166 -0.51688817 0 0 Z " fill="#EF8636" transform="translate(43,5)"/>
<path d="M0 0 C0 0.66 0 1.32 0 2 C0.598125 2.226875 1.19625 2.45375 1.8125 2.6875 C4 4 4 4 5.4375 6.5 C7.29891416 9.47826266 8.69775531 10.01825158 12 11 C12 11.66 12 12.32 12 13 C8.89003222 14.82976016 6.81817118 15.20629302 3.234375 14.9765625 C2.34492187 14.925 1.45546875 14.8734375 0.5390625 14.8203125 C-0.38132812 14.75585938 -1.30171875 14.69140625 -2.25 14.625 C-3.18585937 14.56828125 -4.12171875 14.5115625 -5.0859375 14.453125 C-7.39143448 14.31197212 -9.69578928 14.1605965 -12 14 C-12 14.66 -12 15.32 -12 16 C-13.43554025 16.50559908 -14.8735202 17.0042749 -16.3125 17.5 C-17.11300781 17.7784375 -17.91351563 18.056875 -18.73828125 18.34375 C-21 19 -21 19 -24 19 C-23.40612029 14.13018635 -22.35084369 10.28189387 -20 6 C-18.33981059 5.63577477 -16.67175251 5.30681007 -15 5 C-12.41223701 3.50394952 -9.97332743 1.85691266 -7.5 0.1796875 C-4.50394437 -1.23407625 -3.10849374 -0.96585341 0 0 Z " fill="#2B6B44" transform="translate(64,61)"/>
<path d="M0 0 C1.84672721 1.72840143 2.73129075 3.28089804 3.70703125 5.59765625 C2.38703125 4.93765625 1.06703125 4.27765625 -0.29296875 3.59765625 C0.20203125 7.06265625 0.20203125 7.06265625 0.70703125 10.59765625 C-2.6685656 10.01565679 -3.92049158 8.97013342 -6.29296875 6.59765625 C-8.55522257 5.52511274 -8.55522257 5.52511274 -11.29296875 4.59765625 C-12.668468 4.07814284 -14.04343767 3.55722585 -15.41796875 3.03515625 C-17.70051429 2.17809149 -19.97878613 1.36905046 -22.29296875 0.59765625 C-22.29296875 -0.06234375 -22.29296875 -0.72234375 -22.29296875 -1.40234375 C-28.09655259 -0.91871176 -32.23891239 0.76462075 -37.29296875 3.59765625 C-37.97359375 3.97792969 -38.65421875 4.35820313 -39.35546875 4.75 C-41.00855665 5.68652762 -42.65183803 6.64033 -44.29296875 7.59765625 C-44.29296875 6.93765625 -44.29296875 6.27765625 -44.29296875 5.59765625 C-46.27296875 6.58765625 -46.27296875 6.58765625 -48.29296875 7.59765625 C-46.78883465 3.29469035 -44.04449463 1.99211737 -40.16796875 -0.15234375 C-38.52441406 -1.07273437 -38.52441406 -1.07273437 -36.84765625 -2.01171875 C-36.00460938 -2.470625 -35.1615625 -2.92953125 -34.29296875 -3.40234375 C-36.76796875 -4.39234375 -36.76796875 -4.39234375 -39.29296875 -5.40234375 C-25.79757099 -9.18105512 -11.66144236 -8.11324839 0 0 Z " fill="#B4C95A" transform="translate(91.29296875,60.40234375)"/>
<path d="M0 0 C0.33 0 0.66 0 1 0 C0.97679688 0.65226562 0.95359375 1.30453125 0.9296875 1.9765625 C0.82321446 7.13289974 1.10087691 11.13349707 3 16 C3 16.99 3 17.98 3 19 C2.34 19 1.68 19 1 19 C1 18.01 1 17.02 1 16 C-2.27359462 19.10169354 -4.94198536 22.44177623 -7.625 26.0625 C-8.40101562 27.10535156 -9.17703125 28.14820313 -9.9765625 29.22265625 C-12.96962464 33.33089405 -14.32830803 35.96231022 -15 41 C-14.34 41 -13.68 41 -13 41 C-11 44 -11 44 -11 47 C-13.97 47 -16.94 47 -20 47 C-19.67 47.66 -19.34 48.32 -19 49 C-22.36370321 47.60812281 -24.21906331 46.20568604 -26 43 C-26.42462024 39.33512293 -26.38550369 37.57736316 -24.3125 34.47265625 C-23.549375 33.67730469 -22.78625 32.88195312 -22 32.0625 C-21.17757813 31.19625 -20.35515625 30.33 -19.5078125 29.4375 C-17.36561061 27.35535985 -15.18736607 25.44866527 -12.875 23.5625 C-5.52020454 17.31092386 -1.39554182 9.45867231 0 0 Z " fill="#30ACE0" transform="translate(29,45)"/>
<path d="M0 0 C0.66 0 1.32 0 2 0 C2 0.99 2 1.98 2 3 C2.99 3.33 3.98 3.66 5 4 C5.46450943 10.50313209 4.32575612 14.4174808 1 20 C0.34 20 -0.32 20 -1 20 C-1.73334429 23.97754128 -1.73334429 23.97754128 -2 28 C-4.64 28.99 -7.28 29.98 -10 31 C-10.66 29.02 -11.32 27.04 -12 25 C-12.66 25 -13.32 25 -14 25 C-14.43355998 19.90193265 -13.50538927 17.6229878 -10.375 13.625 C-9.64796875 12.68269531 -8.9209375 11.74039063 -8.171875 10.76953125 C-7.45515625 9.85558594 -6.7384375 8.94164063 -6 8 C-4.40462779 5.7907563 -2.81508469 3.57745044 -1.2265625 1.36328125 C-0.82179688 0.91339844 -0.41703125 0.46351562 0 0 Z " fill="#31A3DC" transform="translate(28,61)"/>
<path d="M0 0 C0.66 0.33 1.32 0.66 2 1 C1.51917969 1.52078125 1.03835937 2.0415625 0.54296875 2.578125 C-1.45173865 5.70905813 -1.50318411 8.06368221 -1.6875 11.75 C-1.75324219 12.92046875 -1.81898437 14.0909375 -1.88671875 15.296875 C-1.92410156 16.18890625 -1.96148438 17.0809375 -2 18 C-1.34 18 -0.68 18 0 18 C0.13277344 18.67546875 0.26554687 19.3509375 0.40234375 20.046875 C0.57894531 20.93890625 0.75554688 21.8309375 0.9375 22.75 C1.11152344 23.63171875 1.28554688 24.5134375 1.46484375 25.421875 C1.64144531 26.27265625 1.81804688 27.1234375 2 28 C2.11988281 28.69609375 2.23976563 29.3921875 2.36328125 30.109375 C3.18338893 32.54454138 4.40001578 33.73044988 6.25 35.5 C6.87519531 36.09941406 7.50039063 36.69882812 8.14453125 37.31640625 C10.35132537 39.31878154 12.62485362 41.20064668 15 43 C13.68 42.67 12.36 42.34 11 42 C11.04600342 42.62455078 11.09200684 43.24910156 11.1394043 43.89257812 C11.34029474 46.76077345 11.51405968 49.63001916 11.6875 52.5 C11.76033203 53.48226562 11.83316406 54.46453125 11.90820312 55.4765625 C12.26598566 61.79037192 11.89917918 66.32105862 9 72 C7.515 72.495 7.515 72.495 6 73 C5.9417747 69.91674642 5.90632866 66.83363495 5.875 63.75 C5.85824219 62.87730469 5.84148438 62.00460938 5.82421875 61.10546875 C5.81777344 60.26113281 5.81132813 59.41679688 5.8046875 58.546875 C5.79421387 57.77182617 5.78374023 56.99677734 5.77294922 56.19824219 C6.02887366 53.72045333 6.85292002 52.1912239 8 50 C8.61434942 45.92053719 8.61434942 45.92053719 8 42 C6.40449439 40.00348496 4.65057802 38.40451537 2.74609375 36.703125 C0.11294092 34.13477011 -0.82850188 31.45591947 -2 28 C-2.27714844 27.22527344 -2.55429687 26.45054688 -2.83984375 25.65234375 C-5.32641934 18.23845248 -6.59151777 11.73835031 -3.0625 4.5 C-1.28 1.28 -1.28 1.28 0 0 Z " fill="#F0C887" transform="translate(31,8)"/>
<path d="M0 0 C1.37562854 1.28965176 2.70766393 2.62689293 4 4 C4 4.66 4 5.32 4 6 C5.423125 5.2265625 5.423125 5.2265625 6.875 4.4375 C7.90625 3.963125 8.9375 3.48875 10 3 C10.66 3.33 11.32 3.66 12 4 C12 4.66 12 5.32 12 6 C12.99 6.33 13.98 6.66 15 7 C15 7.66 15 8.32 15 9 C15.886875 9.04125 16.77375 9.0825 17.6875 9.125 C22.21629527 10.32128554 23.29643492 12.26271887 26 16 C23.94065741 16.39196857 21.8773063 16.7629141 19.8125 17.125 C18.66394531 17.33382812 17.51539062 17.54265625 16.33203125 17.7578125 C12.82632013 18.01262386 11.07647485 17.61570262 8 16 C6.4375 14.625 6.4375 14.625 5 13 C1.96250209 9.75301947 -1.24883231 7.38710671 -5 5 C-3.35 3.35 -1.7 1.7 0 0 Z " fill="#E66636" transform="translate(43,37)"/>
<path d="M0 0 C2.87612357 2.87612357 2.51770436 5.24077925 2.8125 9.25 C2.92207031 10.55453125 3.03164063 11.8590625 3.14453125 13.203125 C2.8912562 19.85672898 -0.31471822 23.96822101 -4.984375 28.3828125 C-9.84858894 32.28549577 -14.64452426 34.40404339 -20.9375 34 C-23.15234375 33.75 -23.15234375 33.75 -25 33 C-26.25390625 30.9375 -26.25390625 30.9375 -27 29 C-26.28714844 29.03480469 -25.57429688 29.06960937 -24.83984375 29.10546875 C-18.73766039 29.27793961 -14.28227738 29.19137592 -9 26 C-7.22851628 23.52066803 -7.22851628 23.52066803 -6 21 C-5.01 20.34 -4.02 19.68 -3 19 C-2.19907746 16.35308332 -2.19907746 16.35308332 -1.8125 13.375 C-1.57466797 11.87066406 -1.57466797 11.87066406 -1.33203125 10.3359375 C-1.16767578 9.17964844 -1.16767578 9.17964844 -1 8 C-0.34 8 0.32 8 1 8 C0.67 5.36 0.34 2.72 0 0 Z " fill="#3473AD" transform="translate(35,62)"/>
<path d="M0 0 C3.53133062 2.00643785 4.76195341 3.28937382 6.05859375 7.16015625 C6.84873656 10.3830209 7.47152744 13.57225025 7.98828125 16.84838867 C9.14950163 24.10689046 10.8096415 29.84329204 15 36 C15.598125 37.010625 16.19625 38.02125 16.8125 39.0625 C17.204375 39.701875 17.59625 40.34125 18 41 C15 41 15 41 13.3125 39.625 C12 38 12 38 12 36 C10.515 35.505 10.515 35.505 9 35 C7.90234375 32.2265625 7.90234375 32.2265625 6.9375 28.625 C6.59589844 27.36042969 6.25429688 26.09585937 5.90234375 24.79296875 C5.1209366 21.50835255 4.51400373 18.27170119 4 14.9375 C3.27056772 10.67409408 2.50533133 7.82373913 -1 5 C-4.93442606 4.42622953 -7.67372822 4.82071849 -11 7 C-12.70921589 8.5412312 -12.70921589 8.5412312 -14 10 C-12.75587233 6.55472339 -11.45185936 3.74608248 -9 1 C-5.66660588 -0.11113137 -3.49519344 -0.34951934 0 0 Z " fill="#D98269" transform="translate(43,5)"/>
<path d="M0 0 C-3.46353935 1.15451312 -5.45887681 0.81310437 -9.0625 0.375 C-16.07389685 -0.25241806 -21.72009369 0.86004685 -28 4 C-28 4.99 -28 5.98 -28 7 C-30.97 8.65 -33.94 10.3 -37 12 C-37 11.34 -37 10.68 -37 10 C-38.98 10.99 -38.98 10.99 -41 12 C-39.4958659 7.6970341 -36.75152588 6.39446112 -32.875 4.25 C-31.23144531 3.32960938 -31.23144531 3.32960938 -29.5546875 2.390625 C-28.71164063 1.93171875 -27.86859375 1.4728125 -27 1 C-29.475 0.01 -29.475 0.01 -32 -1 C-20.62569776 -4.18480463 -11.21840916 -2.87300722 0 0 Z " fill="#EEEAC8" transform="translate(84,56)"/>
<path d="M0 0 C0.66 0 1.32 0 2 0 C2 0.66 2 1.32 2 2 C2.69867188 2.12117188 3.39734375 2.24234375 4.1171875 2.3671875 C5.02726562 2.53476562 5.93734375 2.70234375 6.875 2.875 C7.77992187 3.03742187 8.68484375 3.19984375 9.6171875 3.3671875 C12 4 12 4 14 6 C15.175625 6.4640625 15.175625 6.4640625 16.375 6.9375 C18.97571158 7.99016897 20.83605732 9.23678745 23 11 C23.99 10.34 24.98 9.68 26 9 C26 11.31 26 13.62 26 16 C22.51038791 16 20.88519705 15.09620626 17.8125 13.5 C16.91144531 13.0359375 16.01039062 12.571875 15.08203125 12.09375 C14.39496094 11.7328125 13.70789063 11.371875 13 11 C13 10.34 13 9.68 13 9 C12.175 8.7525 11.35 8.505 10.5 8.25 C6.47626529 6.81295189 2.78020976 4.97645485 -1 3 C-0.67 2.01 -0.34 1.02 0 0 Z " fill="#87AA44" transform="translate(67,59)"/>
<path d="M0 0 C0.66 0.33 1.32 0.66 2 1 C4.32873375 1.68255989 6.66182791 2.35050775 9 3 C9 3.66 9 4.32 9 5 C9.66 5 10.32 5 11 5 C11 5.66 11 6.32 11 7 C12.98 7 14.96 7 17 7 C16.67 7.66 16.34 8.32 16 9 C8.42900475 9.60087264 2.60359047 8.13490591 -4.50927734 5.85986328 C-11.02758455 3.83894142 -17.15817385 3.13088711 -24 3 C-24 2.67 -24 2.34 -24 2 C-23.41508789 2.01047363 -22.83017578 2.02094727 -22.22753906 2.03173828 C-19.56840337 2.07340264 -16.90933647 2.09935901 -14.25 2.125 C-13.32960938 2.14175781 -12.40921875 2.15851563 -11.4609375 2.17578125 C-10.57148437 2.18222656 -9.68203125 2.18867187 -8.765625 2.1953125 C-7.54020996 2.21102295 -7.54020996 2.21102295 -6.29003906 2.22705078 C-3.78001065 1.97818869 -2.22570151 1.1271257 0 0 Z " fill="#749D81" transform="translate(76,73)"/>
<path d="M0 0 C2.9286653 2.9286653 2.59392925 6.18071562 2.8125 10.125 C2.85600586 10.89457031 2.89951172 11.66414063 2.94433594 12.45703125 C3.16316034 18.00058284 2.85152847 22.11166547 0 27 C-0.99 27.33 -1.98 27.66 -3 28 C-3.08184423 25.02026385 -3.14089764 22.04283168 -3.1875 19.0625 C-3.21263672 18.23169922 -3.23777344 17.40089844 -3.26367188 16.54492188 C-3.33425885 10.49797101 -2.25464398 5.60483651 0 0 Z " fill="#59ABD2" transform="translate(40,53)"/>
<path d="M0 0 C0.99 0.33 1.98 0.66 3 1 C1.68 3.64 0.36 6.28 -1 9 C-1.66 9 -2.32 9 -3 9 C-3.73334429 12.97754128 -3.73334429 12.97754128 -4 17 C-7 18 -7 18 -9.1875 17.0625 C-10.0846875 16.5365625 -10.0846875 16.5365625 -11 16 C-11 15.34 -11 14.68 -11 14 C-11.66 14 -12.32 14 -13 14 C-12.875 12.125 -12.875 12.125 -12 10 C-8.9375 8.75 -8.9375 8.75 -6 8 C-6 7.34 -6 6.68 -6 6 C-5.34 6 -4.68 6 -4 6 C-3.566875 5.071875 -3.566875 5.071875 -3.125 4.125 C-2 2 -2 2 0 0 Z " fill="#2D90CC" transform="translate(30,72)"/>
<path d="M0 0 C0 0.66 0 1.32 0 2 C0.66 2 1.32 2 2 2 C2.33 2.99 2.66 3.98 3 5 C5.38686874 6.29095599 5.38686874 6.29095599 8.25 7.375 C12.87714067 9.35462195 15.80392258 11.14266518 19 15 C18.01 15 17.02 15 16 15 C15 14 14 13 13 12 C10.73774618 10.92745649 10.73774618 10.92745649 8 10 C6.62450075 9.48048659 5.24953108 8.9595696 3.875 8.4375 C1.59245446 7.58043524 -0.68581738 6.77139421 -3 6 C-3 5.34 -3 4.68 -3 4 C-4.010625 4.144375 -5.02125 4.28875 -6.0625 4.4375 C-11.53125 5.21875 -11.53125 5.21875 -17 6 C-14.62602268 3.221279 -12.55280146 2.30448041 -9.0625 1.3125 C-8.20785156 1.06113281 -7.35320312 0.80976562 -6.47265625 0.55078125 C-4 0 -4 0 0 0 Z " fill="#9DBC48" transform="translate(72,55)"/>
<path d="M0 0 C2.375 1.875 2.375 1.875 4 5 C4.31823703 8.3620202 4.23525332 11.63457059 4 15 C1.43383368 11.15075052 1.44902324 8.5650696 1 4 C-2.47147842 3.25042843 -2.47147842 3.25042843 -6 3 C-6 3.66 -6 4.32 -6 5 C-6.66 5 -7.32 5 -8 5 C-10.39073445 8.82517513 -10.55966552 12.59665524 -11 17 C-11.66 17 -12.32 17 -13 17 C-13.34422689 11.26288519 -13.36694489 6.93016931 -10 2 C-6.86792454 -0.37605725 -3.84078578 -0.56011459 0 0 Z " fill="#F88E43" transform="translate(42,9)"/>
<path d="M0 0 C4.875 2.75 4.875 2.75 6 5 C6.46090535 12.14403292 6.46090535 12.14403292 4.6875 15.4375 C1.94431875 17.97748264 -0.61814131 18.12101408 -4.1875 18.0625 C-6.0746875 18.0315625 -6.0746875 18.0315625 -8 18 C-5.94709452 16.97354726 -3.90024097 15.95439587 -1.8125 15 C0.17201523 14.12855431 0.17201523 14.12855431 1 12 C1.23553948 7.76028942 1.32845886 4.63821698 -1 1 C-0.67 0.67 -0.34 0.34 0 0 Z " fill="#3D6C3B" transform="translate(91,63)"/>
<path d="M0 0 C1.66666667 1.66666667 3.33333333 3.33333333 5 5 C5.94875 5.845625 6.8975 6.69125 7.875 7.5625 C8.926875 8.7690625 8.926875 8.7690625 10 10 C9.8125 12.3125 9.8125 12.3125 9 14 C5 14 5 14 3.25 12.5 C2.8375 12.005 2.425 11.51 2 11 C1.34 11.66 0.68 12.32 0 13 C0 8.71 0 4.42 0 0 Z " fill="#457AAE" transform="translate(30,40)"/>
<path d="M0 0 C0.97608217 2.92824652 1.08226668 4.95613276 1 8 C1.66 7.67 2.32 7.34 3 7 C3.65555119 4.47266765 3.65555119 4.47266765 4 2 C7.38147659 3.44920425 9.45737085 5.37261655 12 8 C12.66 8.33 13.32 8.66 14 9 C14 9.66 14 10.32 14 11 C11.03 11 8.06 11 5 11 C5.33 11.66 5.66 12.32 6 13 C2.63629679 11.60812281 0.78093669 10.20568604 -1 7 C-1.25 3.8125 -1.25 3.8125 -1 1 C-0.67 0.67 -0.34 0.34 0 0 Z " fill="#9DCDE6" transform="translate(4,81)"/>
<path d="M0 0 C4.46361162 1.36388133 6.22436974 3.32881382 9 7 C6.94065741 7.39196857 4.8773063 7.7629141 2.8125 8.125 C1.08966797 8.43824219 1.08966797 8.43824219 -0.66796875 8.7578125 C-4.18001645 9.01308443 -5.92160737 8.62715039 -9 7 C-10.8125 5.375 -10.8125 5.375 -12 4 C-8.71023192 2.90341064 -7.28696233 3.20046862 -4 4 C-4 4.66 -4 5.32 -4 6 C-2.02 5.67 -0.04 5.34 2 5 C2 4.34 2 3.68 2 3 C1.34 3 0.68 3 0 3 C0 2.01 0 1.02 0 0 Z " fill="#D35147" transform="translate(60,46)"/>
<path d="M0 0 C0.33 0 0.66 0 1 0 C1.98884828 6.3313758 1.26384026 10.36885588 -2.5 15.625 C-8.59132674 23.23915843 -15.59181393 29.69516079 -23 36 C-23 33 -23 33 -21.71826172 31.53295898 C-21.12803223 31.02579346 -20.53780273 30.51862793 -19.9296875 29.99609375 C-19.28281982 29.42528076 -18.63595215 28.85446777 -17.96948242 28.26635742 C-17.27830322 27.66283447 -16.58712402 27.05931152 -15.875 26.4375 C-7.21383162 18.60091608 -1.89373465 11.74115482 0 0 Z " fill="#C8EDF7" transform="translate(29,45)"/>
<path d="M0 0 C1.06320672 2.09273722 2.08446849 4.18886774 3.04296875 6.33203125 C6.81214093 14.50071499 11.87459478 19.60196574 19 25 C17.68 24.67 16.36 24.34 15 24 C14.34 24.99 13.68 25.98 13 27 C12.649375 26.34 12.29875 25.68 11.9375 25 C10.25893519 22.40093191 8.60872734 20.47909867 6.5 18.25 C2.16397052 13.40061397 0.20912925 8.41577771 -0.1875 1.9375 C-0.125625 1.298125 -0.06375 0.65875 0 0 Z " fill="#F7EEDA" transform="translate(27,26)"/>
<path d="M0 0 C2.87612357 2.87612357 2.51770436 5.24077925 2.8125 9.25 C2.92207031 10.55453125 3.03164063 11.8590625 3.14453125 13.203125 C2.98805319 17.31384597 2.18919174 19.55163115 0 23 C-0.66 23.33 -1.32 23.66 -2 24 C-2.09688221 18.55306686 -2.12862175 13.36095333 -1 8 C-0.34 8 0.32 8 1 8 C0.67 5.36 0.34 2.72 0 0 Z " fill="#257DBE" transform="translate(35,62)"/>
<path d="M0 0 C0 0.66 0 1.32 0 2 C0.639375 2.28875 1.27875 2.5775 1.9375 2.875 C4 4 4 4 5 6 C2.525 5.505 2.525 5.505 0 5 C0 4.34 0 3.68 0 3 C-1.98 3 -3.96 3 -6 3 C-6.185625 3.639375 -6.37125 4.27875 -6.5625 4.9375 C-8 7 -8 7 -11.625 7.75 C-12.73875 7.8325 -13.8525 7.915 -15 8 C-15 7.01 -15 6.02 -15 5 C-12.98828125 3.359375 -12.98828125 3.359375 -10.3125 1.75 C-9.44238281 1.20859375 -8.57226562 0.6671875 -7.67578125 0.109375 C-4.59154376 -1.16934536 -3.13996744 -0.97310703 0 0 Z " fill="#317134" transform="translate(64,61)"/>
<path d="M0 0 C3.93673644 1.31224548 6.22719294 2.91910327 9 6 C8.67 6.66 8.34 7.32 8 8 C7.01 7.34 6.02 6.68 5 6 C5.33 8.31 5.66 10.62 6 13 C2.19364503 9.79239749 -1.54563567 6.59253891 -5 3 C-4.34 2.67 -3.68 2.34 -3 2 C-2.01 2.33 -1.02 2.66 0 3 C0 2.01 0 1.02 0 0 Z " fill="#B0C96C" transform="translate(86,58)"/>
<path d="M0 0 C-0.33 1.32 -0.66 2.64 -1 4 C-0.17242187 4.16822266 -0.17242187 4.16822266 0.671875 4.33984375 C3.40065211 5.11360773 5.72772943 6.26817694 8.25 7.5625 C9.14203125 8.01753906 10.0340625 8.47257812 10.953125 8.94140625 C11.62859375 9.29074219 12.3040625 9.64007813 13 10 C12.67 10.66 12.34 11.32 12 12 C5.63610247 11.7348376 1.55048933 9.46680217 -3 5 C-4.23046875 2.80078125 -4.23046875 2.80078125 -5 1 C-3 0 -3 0 0 0 Z " fill="#5E8F48" transform="translate(67,58)"/>
<path d="M0 0 C0.99 0.33 1.98 0.66 3 1 C3.33 3.31 3.66 5.62 4 8 C3.34 8 2.68 8 2 8 C2 7.01 2 6.02 2 5 C-0.60608273 7.5162178 -2.89381685 10.05134359 -5 13 C-5.66 12.67 -6.32 12.34 -7 12 C-5.61735163 9.13132769 -4.07851447 6.43975968 -2.375 3.75 C-1.92898437 3.04359375 -1.48296875 2.3371875 -1.0234375 1.609375 C-0.68570312 1.07828125 -0.34796875 0.5471875 0 0 Z " fill="#3C9BD0" transform="translate(28,56)"/>
<path d="M0 0 C-0.33 1.98 -0.66 3.96 -1 6 C-1.66 6 -2.32 6 -3 6 C-3 5.34 -3 4.68 -3 4 C-4.010625 4.144375 -5.02125 4.28875 -6.0625 4.4375 C-11.53125 5.21875 -11.53125 5.21875 -17 6 C-14.62602268 3.221279 -12.55280146 2.30448041 -9.0625 1.3125 C-8.20785156 1.06113281 -7.35320312 0.80976562 -6.47265625 0.55078125 C-4 0 -4 0 0 0 Z " fill="#84AB58" transform="translate(72,55)"/>
<path d="M0 0 C0.33 0 0.66 0 1 0 C2.75139743 18.56903298 2.75139743 18.56903298 -1 25 C-1.99 25.33 -2.98 25.66 -4 26 C-3.79503906 25.29617187 -3.59007812 24.59234375 -3.37890625 23.8671875 C-1.20709919 15.90735874 -0.3531488 8.23202033 0 0 Z " fill="#D8F4F4" transform="translate(41,55)"/>
<path d="M0 0 C4.42769017 1.47589672 8.6336865 3.73069841 12 7 C12 7.99 12 8.98 12 10 C10.02 9.34 8.04 8.68 6 8 C6 7.34 6 6.68 6 6 C5.21625 5.731875 4.4325 5.46375 3.625 5.1875 C1 4 1 4 -1 1 C-0.67 0.67 -0.34 0.34 0 0 Z " fill="#E99E67" transform="translate(40,44)"/>
<path d="M0 0 C0.66 0 1.32 0 2 0 C2.32613281 0.59167969 2.65226562 1.18335938 2.98828125 1.79296875 C5.2613675 5.90329876 7.54495799 9.99440514 10 14 C7 14 7 14 5.3125 12.625 C4 11 4 11 4 9 C3.01 8.67 2.02 8.34 1 8 C0.67 5.36 0.34 2.72 0 0 Z " fill="#D87063" transform="translate(51,32)"/>
<path d="M0 0 C3.11059548 -0.26662247 4.6640936 -0.20331177 7.375 1.4375 C10.57587515 3.34278283 13.32533362 3.63973859 17 4 C17 4.66 17 5.32 17 6 C15.02 6.33 13.04 6.66 11 7 C11 6.34 11 5.68 11 5 C9.01432292 4.8046875 7.02864583 4.609375 5.04296875 4.4140625 C3 4 3 4 0 2 C0 1.34 0 0.68 0 0 Z " fill="#DF4B2D" transform="translate(45,45)"/>
<path d="M0 0 C6.93 0.495 6.93 0.495 14 1 C14 1.99 14 2.98 14 4 C4.76923077 5.38461538 4.76923077 5.38461538 2 4 C1.34 2.68 0.68 1.36 0 0 Z " fill="#5E8CB2" transform="translate(8,91)"/>
<path d="M0 0 C0.66 0.33 1.32 0.66 2 1 C1.34 2.32 0.68 3.64 0 5 C-0.66 5 -1.32 5 -2 5 C-2 7.31 -2 9.62 -2 12 C-2.99 12.33 -3.98 12.66 -5 13 C-6.00570979 9.80001432 -6.21864753 8.45915981 -4.75 5.375 C-3.27501489 3.37323449 -1.8390257 1.66388039 0 0 Z " fill="#4997C2" transform="translate(10,76)"/>
<path d="M0 0 C0 0.99 0 1.98 0 3 C-0.99 3.66 -1.98 4.32 -3 5 C-1.125 1.125 -1.125 1.125 0 0 Z M-5 5 C-4.01 5.495 -4.01 5.495 -3 6 C-3.99 6.495 -3.99 6.495 -5 7 C-5 6.34 -5 5.68 -5 5 Z M-7 7 C-6.34 7.33 -5.68 7.66 -5 8 C-5.7115625 8.6496875 -5.7115625 8.6496875 -6.4375 9.3125 C-8.23686957 11.02309613 -8.23686957 11.02309613 -9 14 C-8.01 13.67 -7.02 13.34 -6 13 C-6 13.66 -6 14.32 -6 15 C-5.34 15.33 -4.68 15.66 -4 16 C-4.99 16.495 -4.99 16.495 -6 17 C-8.125 16.0625 -8.125 16.0625 -10 15 C-10 14.34 -10 13.68 -10 13 C-10.66 13 -11.32 13 -12 13 C-11.75 11.125 -11.75 11.125 -11 9 C-9.0625 7.6875 -9.0625 7.6875 -7 7 Z " fill="#2C99D6" transform="translate(29,73)"/>
<path d="M0 0 C-2.97 1.65 -5.94 3.3 -9 5 C-9 4.34 -9 3.68 -9 3 C-10.98 3.99 -10.98 3.99 -13 5 C-11.92935542 1.55014525 -10.87365809 0.92981005 -7.625 -0.875 C-4 -2 -4 -2 0 0 Z " fill="#A0C28B" transform="translate(56,63)"/>
<path d="M0 0 C0.33 0.66 0.66 1.32 1 2 C1.99 2.33 2.98 2.66 4 3 C4 3.66 4 4.32 4 5 C4.66 5 5.32 5 6 5 C6.33 6.32 6.66 7.64 7 9 C5.51882199 8.71872579 4.04006751 8.42466268 2.5625 8.125 C1.73878906 7.96257813 0.91507813 7.80015625 0.06640625 7.6328125 C-0.61550781 7.42398438 -1.29742187 7.21515625 -2 7 C-2.33 6.34 -2.66 5.68 -3 5 C-2.01 5 -1.02 5 0 5 C0 3.35 0 1.7 0 0 Z " fill="#E5553C" transform="translate(54,41)"/>
<path d="M0 0 C0.33 0 0.66 0 1 0 C1.50423557 2.74928442 2.00353426 5.49931143 2.5 8.25 C2.64308594 9.02730469 2.78617188 9.80460937 2.93359375 10.60546875 C3.13662109 11.73662109 3.13662109 11.73662109 3.34375 12.890625 C3.46943359 13.58188477 3.59511719 14.27314453 3.72460938 14.98535156 C4 17 4 17 4 21 C3.34 21 2.68 21 2 21 C0.13867327 16.29538677 -0.2509496 12.1242304 -0.125 7.125 C-0.11146484 6.09246094 -0.11146484 6.09246094 -0.09765625 5.0390625 C-0.07432513 3.35922162 -0.03846326 1.67956254 0 0 Z " fill="#DC917D" transform="translate(48,11)"/>
<path d="M0 0 C0.886875 0.309375 1.77375 0.61875 2.6875 0.9375 C5.46709155 1.8290671 8.13136375 2.49377007 11 3 C11.66 2.01 12.32 1.02 13 0 C13 2.31 13 4.62 13 7 C9.51038791 7 7.88519705 6.09620626 4.8125 4.5 C3.91144531 4.0359375 3.01039062 3.571875 2.08203125 3.09375 C1.39496094 2.7328125 0.70789063 2.371875 0 2 C0 1.34 0 0.68 0 0 Z " fill="#779E4C" transform="translate(80,68)"/>
<path d="M0 0 C0.66 0.33 1.32 0.66 2 1 C1.46110852 3.96390316 0.77296899 6.78793117 -0.0625 9.6875 C-1.09077416 12.74696704 -1.09077416 12.74696704 -1 15 C-1.66 15 -2.32 15 -3 15 C-3.35050464 9.158256 -3.16727335 5.1468192 0 0 Z M0 2 C1 4 1 4 1 4 Z " fill="#F0963B" transform="translate(32,11)"/>
<path d="M0 0 C-4.90924297 3.92739438 -7.73920552 4.43177893 -14 4 C-11.61605071 0.72206973 -8.67917602 0.16979401 -4.9375 -0.765625 C-3 -1 -3 -1 0 0 Z " fill="#4478A4" transform="translate(30,90)"/>
<path d="M0 0 C3.38147659 1.44920425 5.45737085 3.37261655 8 6 C8.66 6.33 9.32 6.66 10 7 C10 7.66 10 8.32 10 9 C8.02 9 6.04 9 4 9 C4.33 8.01 4.66 7.02 5 6 C4.01 5.67 3.02 5.34 2 5 C0.8125 2.4375 0.8125 2.4375 0 0 Z " fill="#74C3EE" transform="translate(8,83)"/>
<path d="M0 0 C0.66 0.33 1.32 0.66 2 1 C1.5625 3.3125 1.5625 3.3125 0 6 C-2.90755893 7.36075884 -5.89287788 8.21362959 -9 9 C-6 6 -3 3 0 0 Z " fill="#5BBBDB" transform="translate(20,67)"/>
<path d="M0 0 C0.33 0.66 0.66 1.32 1 2 C4.3 2 7.6 2 11 2 C3 6 3 6 -1 6 C-0.67 4.02 -0.34 2.04 0 0 Z " fill="#70937B" transform="translate(41,74)"/>
<path d="M0 0 C2 2 2 2 2.375 5.875 C2.31541346 9.15225968 2.14649924 9.81687595 0 12.5 C-0.66 12.995 -1.32 13.49 -2 14 C-1.7834375 13.0409375 -1.7834375 13.0409375 -1.5625 12.0625 C-0.82763202 8.06155212 -0.41418889 4.04495104 0 0 Z " fill="#9DBBA8" transform="translate(95,66)"/>
<path d="M0 0 C2.00461299 0.65266469 4.00379834 1.32204472 6 2 C6.928125 2.309375 7.85625 2.61875 8.8125 2.9375 C9.534375 3.288125 10.25625 3.63875 11 4 C11.33 4.99 11.66 5.98 12 7 C10.35 6.67 8.7 6.34 7 6 C7 5.34 7 4.68 7 4 C5.35 4 3.7 4 2 4 C2 3.34 2 2.68 2 2 C1.34 2 0.68 2 0 2 C0 1.34 0 0.68 0 0 Z " fill="#618D46" transform="translate(80,70)"/>
<path d="M0 0 C2.55803184 3.83704776 4.34505724 7.75712791 3.625 12.4375 C3.41875 12.953125 3.2125 13.46875 3 14 C0.81005752 10.71508627 0.64722661 9.16904361 0.375 5.3125 C0.30023438 4.31863281 0.22546875 3.32476563 0.1484375 2.30078125 C0.09945312 1.54152344 0.05046875 0.78226563 0 0 Z " fill="#E4653C" transform="translate(48,26)"/>
<path d="M0 0 C1.65 0.33 3.3 0.66 5 1 C5.33 2.32 5.66 3.64 6 5 C4.68 5 3.36 5 2 5 C2 4.34 2 3.68 2 3 C1.01 3 0.02 3 -1 3 C-0.67 2.01 -0.34 1.02 0 0 Z " fill="#F29634" transform="translate(38,11)"/>
<path d="M0 0 C1.65 0 3.3 0 5 0 C5 0.66 5 1.32 5 2 C6.32 2.33 7.64 2.66 9 3 C7.125 4.0625 7.125 4.0625 5 5 C4.34 4.67 3.68 4.34 3 4 C3 3.34 3 2.68 3 2 C2.01 2 1.02 2 0 2 C0 1.34 0 0.68 0 0 Z " fill="#4D8149" transform="translate(82,74)"/>
<path d="M0 0 C0.66 0 1.32 0 2 0 C1.44271087 3.34373475 0.64826111 6.03312999 -1 9 C-1.66 8.67 -2.32 8.34 -3 8 C-1.125 1.125 -1.125 1.125 0 0 Z " fill="#3A6E47" transform="translate(45,66)"/>
<path d="M0 0 C0.66 0 1.32 0 2 0 C2 0.66 2 1.32 2 2 C3.65 2.33 5.3 2.66 7 3 C7.33 3.99 7.66 4.98 8 6 C4.65626525 5.44271087 1.96687001 4.64826111 -1 3 C-0.67 2.01 -0.34 1.02 0 0 Z " fill="#75A34B" transform="translate(67,59)"/>
<path d="M0 0 C2.475 0.495 2.475 0.495 5 1 C5.33 1.99 5.66 2.98 6 4 C6.66 4 7.32 4 8 4 C8.66 5.32 9.32 6.64 10 8 C4.98886765 6.5682479 3.05530451 4.01554307 0 0 Z " fill="#4CB6E8" transform="translate(8,82)"/>
<path d="M0 0 C2.475 0.495 2.475 0.495 5 1 C5 1.66 5 2.32 5 3 C5.639375 3.28875 6.27875 3.5775 6.9375 3.875 C9 5 9 5 10 7 C7.29068581 6.84518205 5.53415961 6.51827919 3.5546875 4.59765625 C2.32320358 3.10228292 1.1570163 1.5537076 0 0 Z " fill="#447E41" transform="translate(59,60)"/>
<path d="M0 0 C0 0.99 0 1.98 0 3 C-4.43076923 5.09230769 -4.43076923 5.09230769 -7.3125 4.625 C-7.869375 4.41875 -8.42625 4.2125 -9 4 C-6.02819057 2.10134397 -3.48539917 0.64544429 0 0 Z " fill="#B1CA72" transform="translate(64,56)"/>
<path d="M0 0 C0.66 0.33 1.32 0.66 2 1 C2 2.65 2 4.3 2 6 C0.35 5.67 -1.3 5.34 -3 5 C-1.125 1.125 -1.125 1.125 0 0 Z " fill="#ED623C" transform="translate(52,40)"/>
<path d="M0 0 C0.66 0.33 1.32 0.66 2 1 C1.6875 3.375 1.6875 3.375 1 6 C0.01 6.66 -0.98 7.32 -2 8 C-2.125 5.125 -2.125 5.125 -2 2 C-1.34 1.34 -0.68 0.68 0 0 Z " fill="#5C8BB4" transform="translate(35,78)"/>
<path d="M0 0 C0.99 0.33 1.98 0.66 3 1 C3 2.32 3 3.64 3 5 C1.35 5.33 -0.3 5.66 -2 6 C-1.125 1.125 -1.125 1.125 0 0 Z " fill="#3378B4" transform="translate(35,74)"/>
<path d="M0 0 C1.15224028 0.92961422 2.29659176 1.8690125 3.4375 2.8125 C4.07558594 3.33457031 4.71367188 3.85664062 5.37109375 4.39453125 C7 6 7 6 8 9 C4.63704165 7.55873214 2.37072898 5.79407345 0 3 C0 2.01 0 1.02 0 0 Z " fill="#CB7F4F" transform="translate(32,36)"/>
<path d="M0 0 C1.82066152 2.73099228 2.28544268 3.96313137 3 7 C3.6469365 8.6744239 4.30959426 10.34302621 5 12 C2 11 2 11 0.8125 9.375 C-0.27499354 6.19617272 -0.1282071 3.33338467 0 0 Z " fill="#F1A63D" transform="translate(31,26)"/>
<path d="M0 0 C2.97 0.495 2.97 0.495 6 1 C5.34 2.32 4.68 3.64 4 5 C4.99 5 5.98 5 7 5 C7 5.66 7 6.32 7 7 C4.525 6.01 4.525 6.01 2 5 C2 4.01 2 3.02 2 2 C1.34 2 0.68 2 0 2 C0 1.34 0 0.68 0 0 Z " fill="#A9C654" transform="translate(72,55)"/>
<path d="M0 0 C3.53600465 1.91135386 5.78972846 3.62642766 8 7 C6.35 7 4.7 7 3 7 C2.87625 6.360625 2.7525 5.72125 2.625 5.0625 C2.315625 4.0415625 2.315625 4.0415625 2 3 C1.34 2.67 0.68 2.34 0 2 C0 1.34 0 0.68 0 0 Z " fill="#C77D7F" transform="translate(61,46)"/>
<path d="M0 0 C0.99 0.33 1.98 0.66 3 1 C2.67 2.32 2.34 3.64 2 5 C0.68 5 -0.64 5 -2 5 C-2 3.68 -2 2.36 -2 1 C-1.34 0.67 -0.68 0.34 0 0 Z " fill="#2B629E" transform="translate(37,49)"/>
<path d="M0 0 C0.99 0.33 1.98 0.66 3 1 C3 3.97 3 6.94 3 10 C2.67 10 2.34 10 2 10 C2 8.35 2 6.7 2 5 C1.34 5 0.68 5 0 5 C0 3.35 0 1.7 0 0 Z " fill="#388BBB" transform="translate(37,53)"/>
<path d="M0 0 C0.66 0.33 1.32 0.66 2 1 C1.67 2.65 1.34 4.3 1 6 C-0.32 5.67 -1.64 5.34 -3 5 C-1.125 1.125 -1.125 1.125 0 0 Z " fill="#EC7B2D" transform="translate(40,36)"/>
<path d="M0 0 C0.33 0.99 0.66 1.98 1 3 C0.401875 3.268125 -0.19625 3.53625 -0.8125 3.8125 C-2.97224808 4.98493467 -4.35790256 6.19369282 -6 8 C-4.73058503 4.08597051 -3.48832306 2.20927127 0 0 Z " fill="#CE7F4E" transform="translate(35,7)"/>
<path d="M0 0 C0.33 0.66 0.66 1.32 1 2 C0.0625 4.625 0.0625 4.625 -1 7 C-1.99 7 -2.98 7 -4 7 C-2.79618552 4.50638429 -1.54571278 2.31856917 0 0 Z " fill="#42A7CC" transform="translate(25,61)"/>
<path d="M0 0 C1.32 0.99 2.64 1.98 4 3 C3.67 4.32 3.34 5.64 3 7 C2.67 6.34 2.34 5.68 2 5 C1.34 5 0.68 5 0 5 C0 3.35 0 1.7 0 0 Z " fill="#356595" transform="translate(31,42)"/>
</svg>
